<?xml version="1.0" standalone="no"?>
<!DOCTYPE svg PUBLIC "-//W3C//DTD SVG 20010904//EN"
 "http://www.w3.org/TR/2001/REC-SVG-20010904/DTD/svg10.dtd">
<svg version="1.0" xmlns="http://www.w3.org/2000/svg"
 width="260.000000pt" height="260.000000pt" viewBox="0 0 260.000000 260.000000"
 preserveAspectRatio="xMidYMid meet">
<metadata>
Created by potrace 1.11, written by Peter Selinger 2001-2013
</metadata>
<g transform="translate(0.000000,260.000000) scale(0.100000,-0.100000)"
fill="#000000" stroke="none">
<path d="M762 2154 c-206 -55 -362 -221 -407 -431 l-6 -33 168 -2 168 -3 0
-30 0 -30 -171 -3 -170 -2 7 -68 c7 -68 37 -168 61 -204 12 -18 27 -20 143
-21 l130 -2 0 -30 0 -30 -102 -3 c-57 -1 -103 -6 -103 -10 0 -4 185 -192 410
-417 l410 -410 428 430 c457 459 467 471 508 610 24 80 24 220 0 300 -57 192
-207 340 -396 390 -71 19 -210 19 -283 0 -76 -20 -168 -67 -217 -111 l-40 -36
-40 35 c-58 49 -146 94 -221 112 -79 18 -207 18 -277 -1z m793 -321 c10 -9 22
-29 27 -45 l10 -28 111 0 c123 0 167 -9 218 -43 54 -35 72 -85 77 -207 11
-257 -46 -320 -292 -320 l-111 -1 -20 -42 c-17 -36 -25 -42 -50 -42 -26 0 -30
4 -29 25 1 14 4 33 9 43 7 16 -11 17 -297 17 -426 0 -449 8 -479 165 -15 77
-11 192 8 270 32 125 68 135 478 135 l293 0 -11 29 c-18 50 22 80 58 44z"/>
<path d="M1535 1699 c-93 -21 -91 -19 -98 -131 -4 -55 -4 -143 0 -195 l6 -95
32 -14 c17 -7 54 -16 82 -20 l51 -6 11 33 c18 57 40 202 35 234 -14 82 -37
181 -46 193 -12 14 -17 14 -73 1z"/>
<path d="M768 1618 c-17 -67 -16 -227 1 -295 l13 -53 42 0 c77 0 78 3 78 200
0 197 -1 200 -78 200 l-42 0 -14 -52z"/>
</g>
</svg>
